<svg xmlns="http://www.w3.org/2000/svg" xmlns:xlink="http://www.w3.org/1999/xlink" width="500" zoomAndPan="magnify" viewBox="0 0 375 374.999991" height="500" preserveAspectRatio="xMidYMid meet" version="1.0"><defs><clipPath id="360da17cc6"><path d="M 92 199 L 288 199 L 288 346 L 92 346 Z M 92 199 " clip-rule="nonzero"/></clipPath><clipPath id="c6b71af0ec"><path d="M 131.554688 136.722656 L 293.273438 227.8125 L 215.246094 366.34375 L 53.527344 275.253906 Z M 131.554688 136.722656 " clip-rule="nonzero"/></clipPath><clipPath id="9bbe6bea4c"><path d="M 131.554688 136.722656 L 293.273438 227.8125 L 215.246094 366.34375 L 53.527344 275.253906 Z M 131.554688 136.722656 " clip-rule="nonzero"/></clipPath><clipPath id="2aef35b719"><path d="M 92 199 L 288 199 L 288 248 L 92 248 Z M 92 199 " clip-rule="nonzero"/></clipPath><clipPath id="9df2568b90"><path d="M 131.554688 136.722656 L 293.273438 227.8125 L 215.246094 366.34375 L 53.527344 275.253906 Z M 131.554688 136.722656 " clip-rule="nonzero"/></clipPath><clipPath id="6d8b98c160"><path d="M 131.554688 136.722656 L 293.273438 227.8125 L 215.246094 366.34375 L 53.527344 275.253906 Z M 131.554688 136.722656 " clip-rule="nonzero"/></clipPath><clipPath id="ba8663f828"><path d="M 151 222 L 288 222 L 288 346 L 151 346 Z M 151 222 " clip-rule="nonzero"/></clipPath><clipPath id="fac1b10696"><path d="M 131.554688 136.722656 L 293.273438 227.8125 L 215.246094 366.34375 L 53.527344 275.253906 Z M 131.554688 136.722656 " clip-rule="nonzero"/></clipPath><clipPath id="1655662ab5"><path d="M 131.554688 136.722656 L 293.273438 227.8125 L 215.246094 366.34375 L 53.527344 275.253906 Z M 131.554688 136.722656 " clip-rule="nonzero"/></clipPath><clipPath id="5ecb277ec7"><path d="M 122 134 L 137 134 L 137 149 L 122 149 Z M 122 134 " clip-rule="nonzero"/></clipPath><clipPath id="932d720ae2"><path d="M 76.382812 21.757812 L 308.285156 14.695312 L 315.351562 246.597656 L 83.449219 253.660156 Z M 76.382812 21.757812 " clip-rule="nonzero"/></clipPath><clipPath id="23ddd8c909"><path d="M 76.382812 21.757812 L 308.285156 14.695312 L 315.351562 246.597656 L 83.449219 253.660156 Z M 76.382812 21.757812 " clip-rule="nonzero"/></clipPath><clipPath id="336354d9da"><path d="M 76.382812 21.757812 L 308.285156 14.695312 L 315.351562 246.597656 L 83.449219 253.660156 Z M 76.382812 21.757812 " clip-rule="nonzero"/></clipPath><clipPath id="52a4ecd22a"><path d="M 121 134 L 137 134 L 137 149 L 121 149 Z M 121 134 " clip-rule="nonzero"/></clipPath><clipPath id="4ff097fa63"><path d="M 76.382812 21.757812 L 308.285156 14.695312 L 315.351562 246.597656 L 83.449219 253.660156 Z M 76.382812 21.757812 " clip-rule="nonzero"/></clipPath><clipPath id="c80c24018a"><path d="M 76.382812 21.757812 L 308.285156 14.695312 L 315.351562 246.597656 L 83.449219 253.660156 Z M 76.382812 21.757812 " clip-rule="nonzero"/></clipPath><clipPath id="5eaad495f7"><path d="M 76.382812 21.757812 L 308.285156 14.695312 L 315.351562 246.597656 L 83.449219 253.660156 Z M 76.382812 21.757812 " clip-rule="nonzero"/></clipPath><clipPath id="c858b4d2bf"><path d="M 123 143 L 126 143 L 126 145 L 123 145 Z M 123 143 " clip-rule="nonzero"/></clipPath><clipPath id="a8868174e0"><path d="M 76.382812 21.757812 L 308.285156 14.695312 L 315.351562 246.597656 L 83.449219 253.660156 Z M 76.382812 21.757812 " clip-rule="nonzero"/></clipPath><clipPath id="aab312b258"><path d="M 76.382812 21.757812 L 308.285156 14.695312 L 315.351562 246.597656 L 83.449219 253.660156 Z M 76.382812 21.757812 " clip-rule="nonzero"/></clipPath><clipPath id="f1dacd76c0"><path d="M 76.382812 21.757812 L 308.285156 14.695312 L 315.351562 246.597656 L 83.449219 253.660156 Z M 76.382812 21.757812 " clip-rule="nonzero"/></clipPath><clipPath id="f1880ca731"><path d="M 123 142 L 127 142 L 127 146 L 123 146 Z M 123 142 " clip-rule="nonzero"/></clipPath><clipPath id="894a47008f"><path d="M 76.382812 21.757812 L 308.285156 14.695312 L 315.351562 246.597656 L 83.449219 253.660156 Z M 76.382812 21.757812 " clip-rule="nonzero"/></clipPath><clipPath id="2854edee5a"><path d="M 76.382812 21.757812 L 308.285156 14.695312 L 315.351562 246.597656 L 83.449219 253.660156 Z M 76.382812 21.757812 " clip-rule="nonzero"/></clipPath><clipPath id="4f29d2fa98"><path d="M 76.382812 21.757812 L 308.285156 14.695312 L 315.351562 246.597656 L 83.449219 253.660156 Z M 76.382812 21.757812 " clip-rule="nonzero"/></clipPath><clipPath id="f7b4e85316"><path d="M 123 46 L 148 46 L 148 73 L 123 73 Z M 123 46 " clip-rule="nonzero"/></clipPath><clipPath id="e0f180ae8c"><path d="M 76.382812 21.757812 L 308.285156 14.695312 L 315.351562 246.597656 L 83.449219 253.660156 Z M 76.382812 21.757812 " clip-rule="nonzero"/></clipPath><clipPath id="cf021bea98"><path d="M 76.382812 21.757812 L 308.285156 14.695312 L 315.351562 246.597656 L 83.449219 253.660156 Z M 76.382812 21.757812 " clip-rule="nonzero"/></clipPath><clipPath id="74072f98ea"><path d="M 76.382812 21.757812 L 308.285156 14.695312 L 315.351562 246.597656 L 83.449219 253.660156 Z M 76.382812 21.757812 " clip-rule="nonzero"/></clipPath><clipPath id="6fb0dc75db"><path d="M 123 45 L 148 45 L 148 74 L 123 74 Z M 123 45 " clip-rule="nonzero"/></clipPath><clipPath id="f91d0b1153"><path d="M 76.382812 21.757812 L 308.285156 14.695312 L 315.351562 246.597656 L 83.449219 253.660156 Z M 76.382812 21.757812 " clip-rule="nonzero"/></clipPath><clipPath id="af2fb32eda"><path d="M 76.382812 21.757812 L 308.285156 14.695312 L 315.351562 246.597656 L 83.449219 253.660156 Z M 76.382812 21.757812 " clip-rule="nonzero"/></clipPath><clipPath id="ba7cfc53aa"><path d="M 76.382812 21.757812 L 308.285156 14.695312 L 315.351562 246.597656 L 83.449219 253.660156 Z M 76.382812 21.757812 " clip-rule="nonzero"/></clipPath><clipPath id="7618962ddd"><path d="M 236 40 L 260 40 L 260 67 L 236 67 Z M 236 40 " clip-rule="nonzero"/></clipPath><clipPath id="a7c639907e"><path d="M 76.382812 21.757812 L 308.285156 14.695312 L 315.351562 246.597656 L 83.449219 253.660156 Z M 76.382812 21.757812 " clip-rule="nonzero"/></clipPath><clipPath id="89244044bd"><path d="M 76.382812 21.757812 L 308.285156 14.695312 L 315.351562 246.597656 L 83.449219 253.660156 Z M 76.382812 21.757812 " clip-rule="nonzero"/></clipPath><clipPath id="774e9849e0"><path d="M 76.382812 21.757812 L 308.285156 14.695312 L 315.351562 246.597656 L 83.449219 253.660156 Z M 76.382812 21.757812 " clip-rule="nonzero"/></clipPath><clipPath id="32ff7c9306"><path d="M 235 40 L 261 40 L 261 68 L 235 68 Z M 235 40 " clip-rule="nonzero"/></clipPath><clipPath id="e20e923a39"><path d="M 76.382812 21.757812 L 308.285156 14.695312 L 315.351562 246.597656 L 83.449219 253.660156 Z M 76.382812 21.757812 " clip-rule="nonzero"/></clipPath><clipPath id="79e31c1b32"><path d="M 76.382812 21.757812 L 308.285156 14.695312 L 315.351562 246.597656 L 83.449219 253.660156 Z M 76.382812 21.757812 " clip-rule="nonzero"/></clipPath><clipPath id="17d73b9c84"><path d="M 76.382812 21.757812 L 308.285156 14.695312 L 315.351562 246.597656 L 83.449219 253.660156 Z M 76.382812 21.757812 " clip-rule="nonzero"/></clipPath><clipPath id="4fec85f5d9"><path d="M 235 214 L 255 214 L 255 232 L 235 232 Z M 235 214 " clip-rule="nonzero"/></clipPath><clipPath id="bac75b8864"><path d="M 76.382812 21.757812 L 308.285156 14.695312 L 315.351562 246.597656 L 83.449219 253.660156 Z M 76.382812 21.757812 " clip-rule="nonzero"/></clipPath><clipPath id="5ff406ccd8"><path d="M 76.382812 21.757812 L 308.285156 14.695312 L 315.351562 246.597656 L 83.449219 253.660156 Z M 76.382812 21.757812 " clip-rule="nonzero"/></clipPath><clipPath id="0f0daf2e1a"><path d="M 76.382812 21.757812 L 308.285156 14.695312 L 315.351562 246.597656 L 83.449219 253.660156 Z M 76.382812 21.757812 " clip-rule="nonzero"/></clipPath><clipPath id="72dd542f14"><path d="M 234 214 L 256 214 L 256 233 L 234 233 Z M 234 214 " clip-rule="nonzero"/></clipPath><clipPath id="975154c9cd"><path d="M 76.382812 21.757812 L 308.285156 14.695312 L 315.351562 246.597656 L 83.449219 253.660156 Z M 76.382812 21.757812 " clip-rule="nonzero"/></clipPath><clipPath id="40c8fc72fd"><path d="M 76.382812 21.757812 L 308.285156 14.695312 L 315.351562 246.597656 L 83.449219 253.660156 Z M 76.382812 21.757812 " clip-rule="nonzero"/></clipPath><clipPath id="a36473cb52"><path d="M 76.382812 21.757812 L 308.285156 14.695312 L 315.351562 246.597656 L 83.449219 253.660156 Z M 76.382812 21.757812 " clip-rule="nonzero"/></clipPath><clipPath id="f3a2e98465"><path d="M 248 223 L 253 223 L 253 231 L 248 231 Z M 248 223 " clip-rule="nonzero"/></clipPath><clipPath id="8a8e7b825f"><path d="M 76.382812 21.757812 L 308.285156 14.695312 L 315.351562 246.597656 L 83.449219 253.660156 Z M 76.382812 21.757812 " clip-rule="nonzero"/></clipPath><clipPath id="e836a1176c"><path d="M 76.382812 21.757812 L 308.285156 14.695312 L 315.351562 246.597656 L 83.449219 253.660156 Z M 76.382812 21.757812 " clip-rule="nonzero"/></clipPath><clipPath id="6ccbaa4d9f"><path d="M 76.382812 21.757812 L 308.285156 14.695312 L 315.351562 246.597656 L 83.449219 253.660156 Z M 76.382812 21.757812 " clip-rule="nonzero"/></clipPath><clipPath id="e65924388e"><path d="M 141 219 L 164 219 L 164 237 L 141 237 Z M 141 219 " clip-rule="nonzero"/></clipPath><clipPath id="ccecaa9bd5"><path d="M 76.382812 21.757812 L 308.285156 14.695312 L 315.351562 246.597656 L 83.449219 253.660156 Z M 76.382812 21.757812 " clip-rule="nonzero"/></clipPath><clipPath id="2c5f7af7d6"><path d="M 76.382812 21.757812 L 308.285156 14.695312 L 315.351562 246.597656 L 83.449219 253.660156 Z M 76.382812 21.757812 " clip-rule="nonzero"/></clipPath><clipPath id="c62d1ba333"><path d="M 76.382812 21.757812 L 308.285156 14.695312 L 315.351562 246.597656 L 83.449219 253.660156 Z M 76.382812 21.757812 " clip-rule="nonzero"/></clipPath><clipPath id="77bd4c2239"><path d="M 140 218 L 165 218 L 165 238 L 140 238 Z M 140 218 " clip-rule="nonzero"/></clipPath><clipPath id="87d8daf3e6"><path d="M 76.382812 21.757812 L 308.285156 14.695312 L 315.351562 246.597656 L 83.449219 253.660156 Z M 76.382812 21.757812 " clip-rule="nonzero"/></clipPath><clipPath id="d697e11e46"><path d="M 76.382812 21.757812 L 308.285156 14.695312 L 315.351562 246.597656 L 83.449219 253.660156 Z M 76.382812 21.757812 " clip-rule="nonzero"/></clipPath><clipPath id="eefc7d17ef"><path d="M 76.382812 21.757812 L 308.285156 14.695312 L 315.351562 246.597656 L 83.449219 253.660156 Z M 76.382812 21.757812 " clip-rule="nonzero"/></clipPath><clipPath id="dec3b529e5"><path d="M 143 227 L 148 227 L 148 235 L 143 235 Z M 143 227 " clip-rule="nonzero"/></clipPath><clipPath id="4b7f6e82fc"><path d="M 76.382812 21.757812 L 308.285156 14.695312 L 315.351562 246.597656 L 83.449219 253.660156 Z M 76.382812 21.757812 " clip-rule="nonzero"/></clipPath><clipPath id="514426b22c"><path d="M 76.382812 21.757812 L 308.285156 14.695312 L 315.351562 246.597656 L 83.449219 253.660156 Z M 76.382812 21.757812 " clip-rule="nonzero"/></clipPath><clipPath id="da84d1df96"><path d="M 76.382812 21.757812 L 308.285156 14.695312 L 315.351562 246.597656 L 83.449219 253.660156 Z M 76.382812 21.757812 " clip-rule="nonzero"/></clipPath><clipPath id="6dc9b36998"><path d="M 131 55 L 141 55 L 141 65 L 131 65 Z M 131 55 " clip-rule="nonzero"/></clipPath><clipPath id="d1240638fa"><path d="M 76.382812 21.757812 L 308.285156 14.695312 L 315.351562 246.597656 L 83.449219 253.660156 Z M 76.382812 21.757812 " clip-rule="nonzero"/></clipPath><clipPath id="fc33c02328"><path d="M 76.382812 21.757812 L 308.285156 14.695312 L 315.351562 246.597656 L 83.449219 253.660156 Z M 76.382812 21.757812 " clip-rule="nonzero"/></clipPath><clipPath id="038ad93bb3"><path d="M 76.382812 21.757812 L 308.285156 14.695312 L 315.351562 246.597656 L 83.449219 253.660156 Z M 76.382812 21.757812 " clip-rule="nonzero"/></clipPath><clipPath id="3d2f2c2223"><path d="M 240 48 L 250 48 L 250 59 L 240 59 Z M 240 48 " clip-rule="nonzero"/></clipPath><clipPath id="a198bb872e"><path d="M 76.382812 21.757812 L 308.285156 14.695312 L 315.351562 246.597656 L 83.449219 253.660156 Z M 76.382812 21.757812 " clip-rule="nonzero"/></clipPath><clipPath id="9e0edc60ce"><path d="M 76.382812 21.757812 L 308.285156 14.695312 L 315.351562 246.597656 L 83.449219 253.660156 Z M 76.382812 21.757812 " clip-rule="nonzero"/></clipPath><clipPath id="ed8da631f8"><path d="M 76.382812 21.757812 L 308.285156 14.695312 L 315.351562 246.597656 L 83.449219 253.660156 Z M 76.382812 21.757812 " clip-rule="nonzero"/></clipPath><clipPath id="9c94449b24"><path d="M 255 130 L 271 130 L 271 144 L 255 144 Z M 255 130 " clip-rule="nonzero"/></clipPath><clipPath id="1c0402f373"><path d="M 76.382812 21.757812 L 308.285156 14.695312 L 315.351562 246.597656 L 83.449219 253.660156 Z M 76.382812 21.757812 " clip-rule="nonzero"/></clipPath><clipPath id="c948478f2e"><path d="M 76.382812 21.757812 L 308.285156 14.695312 L 315.351562 246.597656 L 83.449219 253.660156 Z M 76.382812 21.757812 " clip-rule="nonzero"/></clipPath><clipPath id="514b2ea3f5"><path d="M 76.382812 21.757812 L 308.285156 14.695312 L 315.351562 246.597656 L 83.449219 253.660156 Z M 76.382812 21.757812 " clip-rule="nonzero"/></clipPath><clipPath id="04a2a3e174"><path d="M 254 129 L 271 129 L 271 144 L 254 144 Z M 254 129 " clip-rule="nonzero"/></clipPath><clipPath id="8369aef487"><path d="M 76.382812 21.757812 L 308.285156 14.695312 L 315.351562 246.597656 L 83.449219 253.660156 Z M 76.382812 21.757812 " clip-rule="nonzero"/></clipPath><clipPath id="7394addb6c"><path d="M 76.382812 21.757812 L 308.285156 14.695312 L 315.351562 246.597656 L 83.449219 253.660156 Z M 76.382812 21.757812 " clip-rule="nonzero"/></clipPath><clipPath id="4d3c5a26aa"><path d="M 76.382812 21.757812 L 308.285156 14.695312 L 315.351562 246.597656 L 83.449219 253.660156 Z M 76.382812 21.757812 " clip-rule="nonzero"/></clipPath><clipPath id="e1c34b0ac9"><path d="M 266 138 L 269 138 L 269 140 L 266 140 Z M 266 138 " clip-rule="nonzero"/></clipPath><clipPath id="90758b4165"><path d="M 76.382812 21.757812 L 308.285156 14.695312 L 315.351562 246.597656 L 83.449219 253.660156 Z M 76.382812 21.757812 " clip-rule="nonzero"/></clipPath><clipPath id="97ec280f9b"><path d="M 76.382812 21.757812 L 308.285156 14.695312 L 315.351562 246.597656 L 83.449219 253.660156 Z M 76.382812 21.757812 " clip-rule="nonzero"/></clipPath><clipPath id="0a7b5b587d"><path d="M 76.382812 21.757812 L 308.285156 14.695312 L 315.351562 246.597656 L 83.449219 253.660156 Z M 76.382812 21.757812 " clip-rule="nonzero"/></clipPath><clipPath id="26dbd59fea"><path d="M 265 137 L 270 137 L 270 141 L 265 141 Z M 265 137 " clip-rule="nonzero"/></clipPath><clipPath id="00ec31afc9"><path d="M 76.382812 21.757812 L 308.285156 14.695312 L 315.351562 246.597656 L 83.449219 253.660156 Z M 76.382812 21.757812 " clip-rule="nonzero"/></clipPath><clipPath id="05af9477f2"><path d="M 76.382812 21.757812 L 308.285156 14.695312 L 315.351562 246.597656 L 83.449219 253.660156 Z M 76.382812 21.757812 " clip-rule="nonzero"/></clipPath><clipPath id="0b51fefb9d"><path d="M 76.382812 21.757812 L 308.285156 14.695312 L 315.351562 246.597656 L 83.449219 253.660156 Z M 76.382812 21.757812 " clip-rule="nonzero"/></clipPath><clipPath id="93038d5a4d"><path d="M 132 33 L 260 33 L 260 232 L 132 232 Z M 132 33 " clip-rule="nonzero"/></clipPath><clipPath id="5088174e3b"><path d="M 76.382812 21.757812 L 308.285156 14.695312 L 315.351562 246.597656 L 83.449219 253.660156 Z M 76.382812 21.757812 " clip-rule="nonzero"/></clipPath><clipPath id="2a4f631e4a"><path d="M 76.382812 21.757812 L 308.285156 14.695312 L 315.351562 246.597656 L 83.449219 253.660156 Z M 76.382812 21.757812 " clip-rule="nonzero"/></clipPath><clipPath id="10838ecdbf"><path d="M 76.382812 21.757812 L 308.285156 14.695312 L 315.351562 246.597656 L 83.449219 253.660156 Z M 76.382812 21.757812 " clip-rule="nonzero"/></clipPath><clipPath id="2eed6b2403"><path d="M 131 32 L 261 32 L 261 233 L 131 233 Z M 131 32 " clip-rule="nonzero"/></clipPath><clipPath id="fdce2b6834"><path d="M 76.382812 21.757812 L 308.285156 14.695312 L 315.351562 246.597656 L 83.449219 253.660156 Z M 76.382812 21.757812 " clip-rule="nonzero"/></clipPath><clipPath id="8dff81692b"><path d="M 76.382812 21.757812 L 308.285156 14.695312 L 315.351562 246.597656 L 83.449219 253.660156 Z M 76.382812 21.757812 " clip-rule="nonzero"/></clipPath><clipPath id="15083cbd57"><path d="M 76.382812 21.757812 L 308.285156 14.695312 L 315.351562 246.597656 L 83.449219 253.660156 Z M 76.382812 21.757812 " clip-rule="nonzero"/></clipPath><clipPath id="00931de4dd"><path d="M 195 43 L 234 43 L 234 79 L 195 79 Z M 195 43 " clip-rule="nonzero"/></clipPath><clipPath id="2958766da0"><path d="M 76.382812 21.757812 L 308.285156 14.695312 L 315.351562 246.597656 L 83.449219 253.660156 Z M 76.382812 21.757812 " clip-rule="nonzero"/></clipPath><clipPath id="1a530d4bd4"><path d="M 76.382812 21.757812 L 308.285156 14.695312 L 315.351562 246.597656 L 83.449219 253.660156 Z M 76.382812 21.757812 " clip-rule="nonzero"/></clipPath><clipPath id="b2115ae355"><path d="M 76.382812 21.757812 L 308.285156 14.695312 L 315.351562 246.597656 L 83.449219 253.660156 Z M 76.382812 21.757812 " clip-rule="nonzero"/></clipPath><clipPath id="f17cf5948c"><path d="M 194 42 L 235 42 L 235 80 L 194 80 Z M 194 42 " clip-rule="nonzero"/></clipPath><clipPath id="68281036ba"><path d="M 76.382812 21.757812 L 308.285156 14.695312 L 315.351562 246.597656 L 83.449219 253.660156 Z M 76.382812 21.757812 " clip-rule="nonzero"/></clipPath><clipPath id="68a3d6a24a"><path d="M 76.382812 21.757812 L 308.285156 14.695312 L 315.351562 246.597656 L 83.449219 253.660156 Z M 76.382812 21.757812 " clip-rule="nonzero"/></clipPath><clipPath id="e3a1e330e4"><path d="M 76.382812 21.757812 L 308.285156 14.695312 L 315.351562 246.597656 L 83.449219 253.660156 Z M 76.382812 21.757812 " clip-rule="nonzero"/></clipPath><clipPath id="8c87433ec4"><path d="M 148 46 L 187 46 L 187 83 L 148 83 Z M 148 46 " clip-rule="nonzero"/></clipPath><clipPath id="d358a1b976"><path d="M 76.382812 21.757812 L 308.285156 14.695312 L 315.351562 246.597656 L 83.449219 253.660156 Z M 76.382812 21.757812 " clip-rule="nonzero"/></clipPath><clipPath id="4aa0c5e36c"><path d="M 76.382812 21.757812 L 308.285156 14.695312 L 315.351562 246.597656 L 83.449219 253.660156 Z M 76.382812 21.757812 " clip-rule="nonzero"/></clipPath><clipPath id="d261a38736"><path d="M 76.382812 21.757812 L 308.285156 14.695312 L 315.351562 246.597656 L 83.449219 253.660156 Z M 76.382812 21.757812 " clip-rule="nonzero"/></clipPath><clipPath id="9060692a1a"><path d="M 147 46 L 187 46 L 187 83 L 147 83 Z M 147 46 " clip-rule="nonzero"/></clipPath><clipPath id="69cb89ef09"><path d="M 76.382812 21.757812 L 308.285156 14.695312 L 315.351562 246.597656 L 83.449219 253.660156 Z M 76.382812 21.757812 " clip-rule="nonzero"/></clipPath><clipPath id="d2c873d99d"><path d="M 76.382812 21.757812 L 308.285156 14.695312 L 315.351562 246.597656 L 83.449219 253.660156 Z M 76.382812 21.757812 " clip-rule="nonzero"/></clipPath><clipPath id="08484fc3df"><path d="M 76.382812 21.757812 L 308.285156 14.695312 L 315.351562 246.597656 L 83.449219 253.660156 Z M 76.382812 21.757812 " clip-rule="nonzero"/></clipPath><clipPath id="ef754ce771"><path d="M 193 90 L 202 90 L 202 105 L 193 105 Z M 193 90 " clip-rule="nonzero"/></clipPath><clipPath id="61ff6f4922"><path d="M 76.382812 21.757812 L 308.285156 14.695312 L 315.351562 246.597656 L 83.449219 253.660156 Z M 76.382812 21.757812 " clip-rule="nonzero"/></clipPath><clipPath id="2128b3a408"><path d="M 76.382812 21.757812 L 308.285156 14.695312 L 315.351562 246.597656 L 83.449219 253.660156 Z M 76.382812 21.757812 " clip-rule="nonzero"/></clipPath><clipPath id="69602f8553"><path d="M 76.382812 21.757812 L 308.285156 14.695312 L 315.351562 246.597656 L 83.449219 253.660156 Z M 76.382812 21.757812 " clip-rule="nonzero"/></clipPath><clipPath id="4ae75979dc"><path d="M 192 89 L 203 89 L 203 106 L 192 106 Z M 192 89 " clip-rule="nonzero"/></clipPath><clipPath id="cc5fa8b4d6"><path d="M 76.382812 21.757812 L 308.285156 14.695312 L 315.351562 246.597656 L 83.449219 253.660156 Z M 76.382812 21.757812 " clip-rule="nonzero"/></clipPath><clipPath id="a686526854"><path d="M 76.382812 21.757812 L 308.285156 14.695312 L 315.351562 246.597656 L 83.449219 253.660156 Z M 76.382812 21.757812 " clip-rule="nonzero"/></clipPath><clipPath id="36535e6772"><path d="M 76.382812 21.757812 L 308.285156 14.695312 L 315.351562 246.597656 L 83.449219 253.660156 Z M 76.382812 21.757812 " clip-rule="nonzero"/></clipPath><clipPath id="019378e68d"><path d="M 152 59 L 164 59 L 164 72 L 152 72 Z M 152 59 " clip-rule="nonzero"/></clipPath><clipPath id="089da867cf"><path d="M 76.382812 21.757812 L 308.285156 14.695312 L 315.351562 246.597656 L 83.449219 253.660156 Z M 76.382812 21.757812 " clip-rule="nonzero"/></clipPath><clipPath id="9d735c8554"><path d="M 76.382812 21.757812 L 308.285156 14.695312 L 315.351562 246.597656 L 83.449219 253.660156 Z M 76.382812 21.757812 " clip-rule="nonzero"/></clipPath><clipPath id="758aa65830"><path d="M 76.382812 21.757812 L 308.285156 14.695312 L 315.351562 246.597656 L 83.449219 253.660156 Z M 76.382812 21.757812 " clip-rule="nonzero"/></clipPath><clipPath id="9cb8c38bf2"><path d="M 159 65 L 162 65 L 162 69 L 159 69 Z M 159 65 " clip-rule="nonzero"/></clipPath><clipPath id="bf42edd6a8"><path d="M 76.382812 21.757812 L 308.285156 14.695312 L 315.351562 246.597656 L 83.449219 253.660156 Z M 76.382812 21.757812 " clip-rule="nonzero"/></clipPath><clipPath id="6bcb44fac4"><path d="M 76.382812 21.757812 L 308.285156 14.695312 L 315.351562 246.597656 L 83.449219 253.660156 Z M 76.382812 21.757812 " clip-rule="nonzero"/></clipPath><clipPath id="040048a6e0"><path d="M 76.382812 21.757812 L 308.285156 14.695312 L 315.351562 246.597656 L 83.449219 253.660156 Z M 76.382812 21.757812 " clip-rule="nonzero"/></clipPath><clipPath id="2fa739fcbe"><path d="M 199 56 L 211 56 L 211 69 L 199 69 Z M 199 56 " clip-rule="nonzero"/></clipPath><clipPath id="542f956724"><path d="M 76.382812 21.757812 L 308.285156 14.695312 L 315.351562 246.597656 L 83.449219 253.660156 Z M 76.382812 21.757812 " clip-rule="nonzero"/></clipPath><clipPath id="21ce409db6"><path d="M 76.382812 21.757812 L 308.285156 14.695312 L 315.351562 246.597656 L 83.449219 253.660156 Z M 76.382812 21.757812 " clip-rule="nonzero"/></clipPath><clipPath id="94ca497f37"><path d="M 76.382812 21.757812 L 308.285156 14.695312 L 315.351562 246.597656 L 83.449219 253.660156 Z M 76.382812 21.757812 " clip-rule="nonzero"/></clipPath><clipPath id="7827498f95"><path d="M 206 62 L 209 62 L 209 66 L 206 66 Z M 206 62 " clip-rule="nonzero"/></clipPath><clipPath id="e00d92f58c"><path d="M 76.382812 21.757812 L 308.285156 14.695312 L 315.351562 246.597656 L 83.449219 253.660156 Z M 76.382812 21.757812 " clip-rule="nonzero"/></clipPath><clipPath id="2fcb2a989d"><path d="M 76.382812 21.757812 L 308.285156 14.695312 L 315.351562 246.597656 L 83.449219 253.660156 Z M 76.382812 21.757812 " clip-rule="nonzero"/></clipPath><clipPath id="b566c23010"><path d="M 76.382812 21.757812 L 308.285156 14.695312 L 315.351562 246.597656 L 83.449219 253.660156 Z M 76.382812 21.757812 " clip-rule="nonzero"/></clipPath><clipPath id="b1c840f9d4"><path d="M 184 90 L 194 90 L 194 105 L 184 105 Z M 184 90 " clip-rule="nonzero"/></clipPath><clipPath id="f09a97626c"><path d="M 76.382812 21.757812 L 308.285156 14.695312 L 315.351562 246.597656 L 83.449219 253.660156 Z M 76.382812 21.757812 " clip-rule="nonzero"/></clipPath><clipPath id="8909926c6c"><path d="M 76.382812 21.757812 L 308.285156 14.695312 L 315.351562 246.597656 L 83.449219 253.660156 Z M 76.382812 21.757812 " clip-rule="nonzero"/></clipPath><clipPath id="e1a585f365"><path d="M 76.382812 21.757812 L 308.285156 14.695312 L 315.351562 246.597656 L 83.449219 253.660156 Z M 76.382812 21.757812 " clip-rule="nonzero"/></clipPath><clipPath id="7ca958e7e4"><path d="M 183 89 L 194 89 L 194 106 L 183 106 Z M 183 89 " clip-rule="nonzero"/></clipPath><clipPath id="00bd9d4c3d"><path d="M 76.382812 21.757812 L 308.285156 14.695312 L 315.351562 246.597656 L 83.449219 253.660156 Z M 76.382812 21.757812 " clip-rule="nonzero"/></clipPath><clipPath id="2f78df0b99"><path d="M 76.382812 21.757812 L 308.285156 14.695312 L 315.351562 246.597656 L 83.449219 253.660156 Z M 76.382812 21.757812 " clip-rule="nonzero"/></clipPath><clipPath id="f7b2a25f65"><path d="M 76.382812 21.757812 L 308.285156 14.695312 L 315.351562 246.597656 L 83.449219 253.660156 Z M 76.382812 21.757812 " clip-rule="nonzero"/></clipPath><clipPath id="b3620b17d8"><path d="M 179 80 L 210 80 L 210 94 L 179 94 Z M 179 80 " clip-rule="nonzero"/></clipPath><clipPath id="eabd8090e1"><path d="M 76.382812 21.757812 L 308.285156 14.695312 L 315.351562 246.597656 L 83.449219 253.660156 Z M 76.382812 21.757812 " clip-rule="nonzero"/></clipPath><clipPath id="31c51a7784"><path d="M 76.382812 21.757812 L 308.285156 14.695312 L 315.351562 246.597656 L 83.449219 253.660156 Z M 76.382812 21.757812 " clip-rule="nonzero"/></clipPath><clipPath id="e2ac0d52cf"><path d="M 76.382812 21.757812 L 308.285156 14.695312 L 315.351562 246.597656 L 83.449219 253.660156 Z M 76.382812 21.757812 " clip-rule="nonzero"/></clipPath><clipPath id="34e1994db6"><path d="M 178 79 L 210 79 L 210 95 L 178 95 Z M 178 79 " clip-rule="nonzero"/></clipPath><clipPath id="eca0b6a92c"><path d="M 76.382812 21.757812 L 308.285156 14.695312 L 315.351562 246.597656 L 83.449219 253.660156 Z M 76.382812 21.757812 " clip-rule="nonzero"/></clipPath><clipPath id="4f33a87ff1"><path d="M 76.382812 21.757812 L 308.285156 14.695312 L 315.351562 246.597656 L 83.449219 253.660156 Z M 76.382812 21.757812 " clip-rule="nonzero"/></clipPath><clipPath id="ada71afb78"><path d="M 76.382812 21.757812 L 308.285156 14.695312 L 315.351562 246.597656 L 83.449219 253.660156 Z M 76.382812 21.757812 " clip-rule="nonzero"/></clipPath><clipPath id="289bd71459"><path d="M 184 74 L 202 74 L 202 85 L 184 85 Z M 184 74 " clip-rule="nonzero"/></clipPath><clipPath id="cb2aec953e"><path d="M 76.382812 21.757812 L 308.285156 14.695312 L 315.351562 246.597656 L 83.449219 253.660156 Z M 76.382812 21.757812 " clip-rule="nonzero"/></clipPath><clipPath id="8cce254ec8"><path d="M 76.382812 21.757812 L 308.285156 14.695312 L 315.351562 246.597656 L 83.449219 253.660156 Z M 76.382812 21.757812 " clip-rule="nonzero"/></clipPath><clipPath id="31450688c2"><path d="M 76.382812 21.757812 L 308.285156 14.695312 L 315.351562 246.597656 L 83.449219 253.660156 Z M 76.382812 21.757812 " clip-rule="nonzero"/></clipPath></defs><g clip-path="url(#360da17cc6)"><g clip-path="url(#c6b71af0ec)"><g clip-path="url(#9bbe6bea4c)"><path fill="#6ad7e5" d="M 287.28125 228.164062 C 288.4375 231.292969 287.757812 234.804688 285.519531 237.28125 L 190.019531 342.917969 C 187.9375 345.222656 184.808594 346.28125 181.753906 345.722656 C 178.699219 345.160156 176.152344 343.058594 175.023438 340.164062 L 155.765625 290.828125 L 125.59375 309.359375 C 122.503906 311.257812 118.578125 311.105469 115.644531 308.976562 C 112.707031 306.851562 111.34375 303.164062 112.1875 299.636719 L 126.085938 241.496094 L 95.585938 215.261719 C 92.585938 212.679688 91.632812 208.4375 93.242188 204.820312 C 94.855469 201.203125 98.648438 199.074219 102.574219 199.578125 L 280.015625 222.382812 C 283.324219 222.808594 286.125 225.035156 287.28125 228.164062 Z M 129.9375 221.167969 L 141.917969 231.472656 C 144.460938 233.660156 145.570312 237.085938 144.789062 240.351562 L 134.652344 282.761719 L 155.527344 269.941406 C 157.789062 268.554688 160.550781 268.238281 163.070312 269.085938 C 165.585938 269.929688 167.601562 271.847656 168.566406 274.320312 L 186.449219 320.140625 L 260.730469 237.972656 Z M 129.9375 221.167969 " fill-opacity="1" fill-rule="evenodd"/></g></g></g><g clip-path="url(#2aef35b719)"><g clip-path="url(#9df2568b90)"><g clip-path="url(#6d8b98c160)"><path fill="#6ad7e5" d="M 279.3125 240.222656 C 283.949219 239.996094 287.644531 236.261719 287.828125 231.625 C 288.011719 226.984375 284.621094 222.972656 280.015625 222.382812 L 102.574219 199.578125 C 98.648438 199.074219 94.855469 201.203125 93.242188 204.820312 C 91.632812 208.4375 92.585938 212.679688 95.585938 215.261719 L 130.230469 245.0625 C 131.972656 246.558594 134.21875 247.328125 136.511719 247.21875 Z M 279.3125 240.222656 " fill-opacity="1" fill-rule="evenodd"/></g></g></g><g clip-path="url(#ba8663f828)"><g clip-path="url(#fac1b10696)"><g clip-path="url(#1655662ab5)"><path fill="#6ad7e5" d="M 285.519531 237.28125 C 288.308594 234.199219 288.609375 229.601562 286.25 226.179688 C 283.890625 222.761719 279.488281 221.410156 275.613281 222.921875 L 156.957031 269.230469 C 152.347656 271.03125 150.070312 276.226562 151.867188 280.839844 L 175.023438 340.167969 C 176.152344 343.058594 178.699219 345.164062 181.753906 345.722656 C 184.808594 346.285156 187.9375 345.222656 190.019531 342.917969 Z M 285.519531 237.28125 " fill-opacity="1" fill-rule="evenodd"/></g></g></g><g clip-path="url(#5ecb277ec7)"><g clip-path="url(#932d720ae2)"><g clip-path="url(#23ddd8c909)"><g clip-path="url(#336354d9da)"><path fill="#f6d2a2" d="M 123.558594 144.722656 C 124.03125 150.699219 129.925781 147.75 132.578125 145.796875 C 135.097656 143.945312 135.894531 145.398438 136.011719 141.886719 C 136.175781 139.578125 136.199219 137.265625 136.085938 134.957031 C 134.082031 134.816406 132.117188 135.023438 130.1875 135.582031 C 128.261719 136.140625 126.488281 137.011719 124.867188 138.199219 C 123.257812 139.445312 120.300781 143.34375 123.558594 144.765625 " fill-opacity="1" fill-rule="evenodd"/></g></g></g></g><g clip-path="url(#52a4ecd22a)"><g clip-path="url(#4ff097fa63)"><g clip-path="url(#c80c24018a)"><g clip-path="url(#5eaad495f7)"><path fill="#000000" d="M 126.792969 148.847656 C 126.195312 148.875 125.621094 148.769531 125.074219 148.527344 C 124.441406 148.1875 123.941406 147.710938 123.570312 147.09375 C 123.199219 146.480469 123.015625 145.8125 123.011719 145.09375 C 122.601562 144.914062 122.265625 144.644531 121.996094 144.289062 C 121.726562 143.929688 121.5625 143.53125 121.5 143.089844 C 121.574219 142.019531 121.875 141.015625 122.390625 140.078125 C 122.910156 139.140625 123.601562 138.355469 124.46875 137.726562 C 126.140625 136.492188 127.972656 135.589844 129.96875 135.011719 C 131.960938 134.4375 133.996094 134.222656 136.066406 134.375 L 136.5625 134.402344 L 136.574219 134.898438 C 136.695312 136.703125 136.695312 138.507812 136.574219 140.316406 C 136.546875 140.847656 136.527344 141.367188 136.507812 141.898438 C 136.421875 144.390625 135.96875 144.78125 134.699219 145.261719 C 134.03125 145.5 133.410156 145.828125 132.835938 146.253906 C 131.050781 147.644531 129.035156 148.511719 126.792969 148.847656 Z M 134.441406 135.5 C 132.773438 135.527344 131.152344 135.808594 129.578125 136.34375 C 128 136.882812 126.542969 137.644531 125.207031 138.636719 C 124.058594 139.527344 122.488281 141.578125 122.667969 142.953125 C 122.71875 143.246094 122.84375 143.507812 123.042969 143.734375 C 123.242188 143.957031 123.484375 144.113281 123.773438 144.203125 L 124.089844 144.335938 L 124.101562 144.679688 C 124.21875 146.167969 124.695312 147.113281 125.527344 147.492188 C 127.132812 148.226562 130.035156 146.933594 132.214844 145.335938 C 132.871094 144.851562 133.585938 144.472656 134.355469 144.199219 C 135.1875 143.882812 135.359375 143.8125 135.425781 141.859375 C 135.40625 141.332031 135.464844 140.800781 135.492188 140.261719 C 135.589844 138.671875 135.605469 137.078125 135.535156 135.488281 C 135.164062 135.484375 134.800781 135.488281 134.445312 135.5 Z M 134.441406 135.5 " fill-opacity="1" fill-rule="nonzero"/></g></g></g></g><g clip-path="url(#c858b4d2bf)"><g clip-path="url(#a8868174e0)"><g clip-path="url(#aab312b258)"><g clip-path="url(#f1dacd76c0)"><path fill="#c6b198" d="M 123.558594 144.722656 C 124.480469 144.488281 125.261719 144.019531 125.902344 143.308594 " fill-opacity="1" fill-rule="evenodd"/></g></g></g></g><g clip-path="url(#f1880ca731)"><g clip-path="url(#894a47008f)"><g clip-path="url(#2854edee5a)"><g clip-path="url(#4f29d2fa98)"><path fill="#000000" d="M 123.574219 145.296875 C 123.441406 145.292969 123.320312 145.25 123.214844 145.167969 C 123.113281 145.082031 123.046875 144.972656 123.019531 144.839844 C 122.992188 144.707031 123.007812 144.582031 123.070312 144.460938 C 123.128906 144.34375 123.222656 144.253906 123.34375 144.199219 L 123.726562 144.050781 C 124.40625 143.875 124.976562 143.519531 125.441406 142.992188 C 125.523438 142.84375 125.648438 142.75 125.8125 142.710938 C 125.976562 142.671875 126.128906 142.703125 126.269531 142.800781 C 126.410156 142.898438 126.488281 143.03125 126.507812 143.199219 C 126.53125 143.367188 126.484375 143.515625 126.375 143.644531 C 125.785156 144.367188 125.039062 144.855469 124.140625 145.113281 L 123.777344 145.253906 C 123.710938 145.28125 123.644531 145.292969 123.574219 145.296875 Z M 123.574219 145.296875 " fill-opacity="1" fill-rule="nonzero"/></g></g></g></g><g clip-path="url(#f7b4e85316)"><g clip-path="url(#e0f180ae8c)"><g clip-path="url(#cf021bea98)"><g clip-path="url(#74072f98ea)"><path fill="#6ad7e5" d="M 135.207031 72.984375 C 112.085938 67.242188 128.246094 37.589844 147.007812 49 Z M 135.207031 72.984375 " fill-opacity="1" fill-rule="evenodd"/></g></g></g></g><g clip-path="url(#6fb0dc75db)"><g clip-path="url(#f91d0b1153)"><g clip-path="url(#af2fb32eda)"><g clip-path="url(#ba7cfc53aa)"><path fill="#000000" d="M 135.515625 73.636719 L 135.070312 73.527344 C 134.378906 73.429688 133.703125 73.285156 133.035156 73.085938 C 132.367188 72.890625 131.71875 72.644531 131.085938 72.351562 C 130.457031 72.054688 129.851562 71.714844 129.269531 71.332031 C 128.691406 70.945312 128.140625 70.519531 127.625 70.054688 C 127.109375 69.589844 126.628906 69.085938 126.1875 68.546875 C 125.746094 68.007812 125.347656 67.441406 124.992188 66.84375 C 124.636719 66.246094 124.324219 65.625 124.0625 64.980469 C 123.796875 64.335938 123.582031 63.675781 123.417969 63 C 123.238281 61.597656 123.257812 60.199219 123.46875 58.800781 C 123.679688 57.402344 124.078125 56.0625 124.667969 54.777344 C 125.253906 53.488281 126.003906 52.308594 126.921875 51.234375 C 127.839844 50.15625 128.886719 49.226562 130.0625 48.441406 C 130.695312 48.015625 131.359375 47.636719 132.050781 47.308594 C 132.738281 46.980469 133.449219 46.703125 134.183594 46.480469 C 134.914062 46.261719 135.660156 46.09375 136.414062 45.980469 C 137.171875 45.871094 137.933594 45.816406 138.695312 45.820312 C 139.460938 45.824219 140.222656 45.882812 140.976562 46 C 141.734375 46.113281 142.476562 46.285156 143.207031 46.515625 C 143.9375 46.742188 144.644531 47.023438 145.335938 47.355469 C 146.023438 47.691406 146.683594 48.074219 147.3125 48.503906 L 147.757812 48.773438 Z M 137.960938 46.96875 C 135.304688 47.050781 132.886719 47.851562 130.707031 49.367188 C 129.621094 50.085938 128.652344 50.941406 127.804688 51.929688 C 126.953125 52.921875 126.257812 54.007812 125.710938 55.195312 C 125.167969 56.378906 124.792969 57.613281 124.59375 58.902344 C 124.394531 60.191406 124.375 61.484375 124.535156 62.777344 C 124.832031 63.996094 125.300781 65.140625 125.9375 66.222656 C 126.574219 67.300781 127.351562 68.265625 128.273438 69.113281 C 129.195312 69.960938 130.21875 70.660156 131.347656 71.207031 C 132.476562 71.75 133.65625 72.125 134.894531 72.320312 L 146.269531 49.21875 C 143.710938 47.6875 140.941406 46.941406 137.960938 46.984375 Z M 137.960938 46.96875 " fill-opacity="1" fill-rule="nonzero"/></g></g></g></g><g clip-path="url(#7618962ddd)"><g clip-path="url(#a7c639907e)"><g clip-path="url(#89244044bd)"><g clip-path="url(#774e9849e0)"><path fill="#6ad7e5" d="M 236.238281 44.09375 C 253.96875 30.800781 271.257812 59.050781 250.398438 66.921875 Z M 236.238281 44.09375 " fill-opacity="1" fill-rule="evenodd"/></g></g></g></g><g clip-path="url(#32ff7c9306)"><g clip-path="url(#e20e923a39)"><g clip-path="url(#79e31c1b32)"><g clip-path="url(#17d73b9c84)"><path fill="#000000" d="M 250.164062 67.621094 L 235.480469 43.949219 L 235.898438 43.636719 C 236.460938 43.160156 237.058594 42.722656 237.683594 42.332031 C 238.3125 41.941406 238.964844 41.597656 239.640625 41.304688 C 240.320312 41.007812 241.015625 40.765625 241.730469 40.574219 C 242.445312 40.382812 243.167969 40.246094 243.902344 40.160156 C 244.636719 40.074219 245.375 40.046875 246.113281 40.070312 C 246.851562 40.09375 247.585938 40.175781 248.3125 40.308594 C 249.039062 40.441406 249.753906 40.625 250.453125 40.867188 C 251.152344 41.105469 251.832031 41.394531 252.488281 41.734375 C 253.738281 42.417969 254.871094 43.257812 255.886719 44.253906 C 256.902344 45.25 257.765625 46.367188 258.472656 47.605469 C 259.175781 48.84375 259.703125 50.152344 260.042969 51.535156 C 260.386719 52.917969 260.535156 54.320312 260.488281 55.742188 C 260.417969 56.417969 260.296875 57.085938 260.125 57.742188 C 259.953125 58.402344 259.734375 59.042969 259.46875 59.667969 C 259.203125 60.292969 258.890625 60.894531 258.535156 61.472656 C 258.179688 62.050781 257.78125 62.601562 257.34375 63.121094 C 256.902344 63.640625 256.429688 64.125 255.917969 64.570312 C 255.40625 65.019531 254.867188 65.425781 254.292969 65.792969 C 253.722656 66.160156 253.125 66.484375 252.507812 66.761719 C 251.886719 67.039062 251.25 67.269531 250.59375 67.453125 Z M 237.003906 44.234375 L 250.636719 66.210938 C 251.800781 65.855469 252.886719 65.34375 253.902344 64.667969 C 254.914062 63.992188 255.804688 63.183594 256.582031 62.246094 C 257.355469 61.308594 257.980469 60.28125 258.453125 59.15625 C 258.921875 58.035156 259.222656 56.871094 259.355469 55.660156 C 259.394531 54.347656 259.257812 53.050781 258.9375 51.773438 C 258.621094 50.496094 258.132812 49.289062 257.480469 48.148438 C 256.824219 47.003906 256.027344 45.972656 255.089844 45.054688 C 254.148438 44.132812 253.101562 43.359375 251.945312 42.730469 C 250.765625 42.097656 249.519531 41.652344 248.210938 41.394531 C 246.898438 41.132812 245.578125 41.070312 244.246094 41.207031 C 242.914062 41.339844 241.632812 41.664062 240.398438 42.183594 C 239.167969 42.699219 238.035156 43.382812 237.003906 44.234375 Z M 237.003906 44.234375 " fill-opacity="1" fill-rule="nonzero"/></g></g></g></g><g clip-path="url(#4fec85f5d9)"><g clip-path="url(#bac75b8864)"><g clip-path="url(#5ff406ccd8)"><g clip-path="url(#0f0daf2e1a)"><path fill="#f6d2a2" d="M 245.347656 214.761719 C 250.042969 217.46875 258.742188 225.835938 251.941406 230.230469 C 245.488281 236.511719 241.382812 223.871094 235.492188 222.28125 C 236.570312 220.421875 237.960938 218.839844 239.667969 217.535156 C 241.378906 216.234375 243.269531 215.308594 245.347656 214.761719 Z M 245.347656 214.761719 " fill-opacity="1" fill-rule="evenodd"/></g></g></g></g><g clip-path="url(#72dd542f14)"><g clip-path="url(#975154c9cd)"><g clip-path="url(#40c8fc72fd)"><g clip-path="url(#a36473cb52)"><path fill="#000000" d="M 248.507812 232.539062 L 248.230469 232.546875 C 245.609375 232.46875 243.359375 229.984375 241.183594 227.574219 C 239.648438 225.488281 237.703125 223.910156 235.34375 222.84375 L 234.566406 222.632812 L 235.027344 221.96875 C 236.152344 220.050781 237.597656 218.421875 239.367188 217.082031 C 241.136719 215.738281 243.097656 214.78125 245.242188 214.214844 L 245.453125 214.207031 L 245.636719 214.3125 C 248.644531 216.046875 254.894531 221.195312 255.011719 226.023438 C 255.019531 226.5 254.960938 226.96875 254.839844 227.429688 C 254.722656 227.894531 254.542969 228.332031 254.304688 228.742188 C 254.066406 229.15625 253.777344 229.53125 253.4375 229.867188 C 253.097656 230.203125 252.71875 230.484375 252.304688 230.71875 C 251.808594 231.25 251.234375 231.675781 250.578125 231.988281 C 249.921875 232.304688 249.230469 232.488281 248.507812 232.539062 Z M 236.398438 222.027344 C 238.609375 223.242188 240.488281 224.84375 242.03125 226.839844 C 244.140625 229.167969 246.136719 231.371094 248.269531 231.4375 C 248.898438 231.414062 249.496094 231.269531 250.066406 231 C 250.632812 230.730469 251.125 230.359375 251.539062 229.886719 L 251.621094 229.816406 C 252.316406 229.453125 252.863281 228.933594 253.265625 228.261719 C 253.667969 227.589844 253.863281 226.863281 253.859375 226.078125 C 253.742188 222.222656 248.722656 217.53125 245.238281 215.460938 C 243.402344 215.945312 241.722656 216.753906 240.195312 217.882812 C 238.667969 219.007812 237.402344 220.378906 236.398438 221.992188 Z M 236.398438 222.027344 " fill-opacity="1" fill-rule="nonzero"/></g></g></g></g><g clip-path="url(#f3a2e98465)"><g clip-path="url(#8a8e7b825f)"><g clip-path="url(#e836a1176c)"><g clip-path="url(#6ccbaa4d9f)"><path fill="#000000" d="M 251.957031 230.800781 C 251.726562 230.808594 251.554688 230.710938 251.441406 230.503906 C 251.082031 229.808594 250.761719 229.09375 250.484375 228.359375 C 250.039062 226.960938 249.3125 225.730469 248.296875 224.667969 C 248.199219 224.558594 248.152344 224.429688 248.152344 224.285156 C 248.15625 224.140625 248.203125 224.011719 248.300781 223.90625 C 248.398438 223.796875 248.523438 223.734375 248.667969 223.71875 C 248.8125 223.703125 248.941406 223.738281 249.0625 223.824219 C 250.210938 225 251.039062 226.371094 251.542969 227.933594 C 251.808594 228.617188 252.109375 229.285156 252.445312 229.9375 C 252.519531 230.078125 252.535156 230.222656 252.492188 230.375 C 252.445312 230.523438 252.355469 230.640625 252.214844 230.714844 C 252.136719 230.765625 252.050781 230.792969 251.957031 230.800781 Z M 251.957031 230.800781 " fill-opacity="1" fill-rule="nonzero"/></g></g></g></g><g clip-path="url(#e65924388e)"><g clip-path="url(#ccecaa9bd5)"><g clip-path="url(#2c5f7af7d6)"><g clip-path="url(#c62d1ba333)"><path fill="#f6d2a2" d="M 163.324219 227.015625 C 157.945312 228.015625 155.050781 232.992188 150.617188 235.605469 C 146.449219 238.273438 144.714844 234.976562 144.316406 234.304688 C 143.640625 234.019531 143.71875 234.605469 142.660156 233.628906 C 138.503906 227.503906 146.425781 222.730469 150.519531 219.5 C 156.316406 218.140625 160.128906 223.089844 163.324219 227.015625 Z M 163.324219 227.015625 " fill-opacity="1" fill-rule="evenodd"/></g></g></g></g><g clip-path="url(#77bd4c2239)"><g clip-path="url(#87d8daf3e6)"><g clip-path="url(#d697e11e46)"><g clip-path="url(#eefc7d17ef)"><path fill="#000000" d="M 147.785156 237.195312 C 147.441406 237.207031 147.097656 237.175781 146.761719 237.097656 C 146.152344 236.917969 145.605469 236.628906 145.113281 236.226562 C 144.625 235.828125 144.230469 235.347656 143.933594 234.789062 L 143.804688 234.792969 C 143.324219 234.808594 142.96875 234.714844 142.234375 234.019531 L 142.152344 233.929688 C 138.179688 228.058594 144.492188 223.316406 148.675781 220.179688 C 149.199219 219.785156 149.695312 219.421875 150.144531 219.0625 L 150.242188 218.984375 L 150.367188 218.980469 C 156.335938 217.582031 160.285156 222.4375 163.449219 226.339844 L 164.347656 227.433594 L 163.402344 227.609375 C 160.304688 228.453125 157.683594 230.066406 155.535156 232.449219 C 154.109375 233.832031 152.558594 235.058594 150.878906 236.128906 C 149.945312 236.765625 148.914062 237.121094 147.785156 237.195312 Z M 143.855469 233.644531 C 144.089844 233.636719 144.3125 233.679688 144.527344 233.777344 L 144.695312 233.851562 L 144.847656 234.101562 C 145.308594 235.035156 146.03125 235.664062 147.023438 235.984375 C 148.234375 236.171875 149.328125 235.898438 150.308594 235.160156 C 151.921875 234.128906 153.414062 232.941406 154.789062 231.605469 C 156.898438 229.367188 159.402344 227.734375 162.300781 226.707031 C 159.285156 222.984375 155.8125 218.96875 150.769531 220.074219 C 150.335938 220.40625 149.867188 220.761719 149.351562 221.125 C 145.09375 224.328125 139.761719 228.320312 143.054688 233.269531 C 143.515625 233.707031 143.625 233.695312 143.71875 233.691406 Z M 143.855469 233.644531 " fill-opacity="1" fill-rule="nonzero"/></g></g></g></g><g clip-path="url(#dec3b529e5)"><g clip-path="url(#4b7f6e82fc)"><g clip-path="url(#514426b22c)"><g clip-path="url(#da84d1df96)"><path fill="#000000" d="M 144.328125 234.871094 L 144.277344 234.871094 C 144.121094 234.863281 143.988281 234.800781 143.882812 234.683594 C 143.777344 234.566406 143.730469 234.429688 143.738281 234.273438 C 143.929688 232.71875 144.496094 231.316406 145.445312 230.070312 C 145.882812 229.425781 146.261719 228.746094 146.578125 228.035156 C 146.644531 227.898438 146.75 227.804688 146.890625 227.753906 C 147.03125 227.699219 147.167969 227.703125 147.308594 227.757812 C 147.449219 227.816406 147.546875 227.910156 147.613281 228.046875 C 147.675781 228.183594 147.683594 228.324219 147.636719 228.464844 C 147.292969 229.238281 146.886719 229.976562 146.414062 230.679688 C 145.578125 231.769531 145.066406 232.992188 144.886719 234.351562 C 144.871094 234.496094 144.8125 234.617188 144.703125 234.71875 C 144.597656 234.816406 144.472656 234.867188 144.328125 234.871094 Z M 144.328125 234.871094 " fill-opacity="1" fill-rule="nonzero"/></g></g></g></g><g clip-path="url(#6dc9b36998)"><g clip-path="url(#d1240638fa)"><g clip-path="url(#fc33c02328)"><g clip-path="url(#038ad93bb3)"><path fill="#000000" d="M 135.917969 64.917969 C 132.847656 63.410156 130.5625 61.308594 132.304688 57.777344 C 133.917969 54.484375 137.109375 54.726562 140.179688 56.246094 Z M 135.917969 64.917969 " fill-opacity="1" fill-rule="evenodd"/></g></g></g></g><g clip-path="url(#3d2f2c2223)"><g clip-path="url(#a198bb872e)"><g clip-path="url(#9e0edc60ce)"><g clip-path="url(#ed8da631f8)"><path fill="#000000" d="M 245.363281 58.523438 C 248.335938 56.832031 250.484375 54.597656 248.53125 51.175781 C 246.722656 47.988281 243.550781 48.425781 240.578125 50.125 Z M 245.363281 58.523438 " fill-opacity="1" fill-rule="evenodd"/></g></g></g></g><g clip-path="url(#9c94449b24)"><g clip-path="url(#1c0402f373)"><g clip-path="url(#c948478f2e)"><g clip-path="url(#514b2ea3f5)"><path fill="#f6d2a2" d="M 268.660156 139.550781 C 268.554688 145.542969 262.492188 142.957031 259.722656 141.171875 C 257.097656 139.472656 256.386719 140.976562 256.058594 137.472656 C 255.753906 135.179688 255.589844 132.875 255.5625 130.5625 C 257.554688 130.300781 259.527344 130.390625 261.488281 130.828125 C 263.445312 131.269531 265.269531 132.03125 266.957031 133.117188 C 268.636719 134.261719 271.828125 137.972656 268.664062 139.59375 " fill-opacity="1" fill-rule="evenodd"/></g></g></g></g><g clip-path="url(#04a2a3e174)"><g clip-path="url(#8369aef487)"><g clip-path="url(#7394addb6c)"><g clip-path="url(#4d3c5a26aa)"><path fill="#000000" d="M 265.679688 143.855469 C 263.398438 143.671875 261.3125 142.933594 259.417969 141.644531 C 258.824219 141.253906 258.183594 140.964844 257.5 140.765625 C 256.203125 140.355469 255.726562 139.996094 255.492188 137.519531 C 255.476562 136.992188 255.386719 136.472656 255.328125 135.945312 C 255.097656 134.148438 254.988281 132.347656 254.996094 130.535156 L 254.980469 130.042969 L 255.472656 129.984375 C 257.53125 129.707031 259.574219 129.796875 261.601562 130.25 C 263.625 130.703125 265.511719 131.492188 267.253906 132.621094 C 268.15625 133.199219 268.894531 133.941406 269.46875 134.847656 C 270.042969 135.75 270.402344 136.734375 270.546875 137.796875 C 270.507812 138.238281 270.367188 138.648438 270.121094 139.019531 C 269.875 139.394531 269.554688 139.683594 269.15625 139.890625 C 269.199219 140.605469 269.050781 141.285156 268.71875 141.921875 C 268.390625 142.558594 267.917969 143.0625 267.308594 143.441406 C 266.796875 143.703125 266.253906 143.839844 265.679688 143.855469 Z M 256.128906 131.089844 C 256.15625 132.683594 256.269531 134.269531 256.464844 135.851562 C 256.523438 136.378906 256.578125 136.90625 256.628906 137.441406 C 256.8125 139.386719 256.988281 139.441406 257.835938 139.710938 C 258.621094 139.9375 259.359375 140.273438 260.042969 140.71875 C 262.308594 142.1875 265.292969 143.292969 266.851562 142.460938 C 267.65625 142.03125 268.078125 141.0625 268.105469 139.566406 L 268.09375 139.226562 L 268.402344 139.070312 C 268.683594 138.96875 268.914062 138.796875 269.101562 138.558594 C 269.285156 138.324219 269.394531 138.054688 269.425781 137.757812 C 269.515625 136.375 267.832031 134.425781 266.632812 133.605469 C 265.078125 132.59375 263.402344 131.871094 261.597656 131.433594 C 259.796875 131 257.972656 130.875 256.128906 131.066406 Z M 256.128906 131.089844 " fill-opacity="1" fill-rule="nonzero"/></g></g></g></g><g clip-path="url(#e1c34b0ac9)"><g clip-path="url(#90758b4165)"><g clip-path="url(#97ec280f9b)"><g clip-path="url(#0a7b5b587d)"><path fill="#c6b198" d="M 268.660156 139.550781 C 267.726562 139.371094 266.917969 138.949219 266.238281 138.28125 " fill-opacity="1" fill-rule="evenodd"/></g></g></g></g><g clip-path="url(#26dbd59fea)"><g clip-path="url(#00ec31afc9)"><g clip-path="url(#05af9477f2)"><g clip-path="url(#0b51fefb9d)"><path fill="#000000" d="M 268.679688 140.113281 C 268.613281 140.128906 268.546875 140.128906 268.484375 140.121094 L 268.109375 140 C 267.199219 139.800781 266.425781 139.359375 265.792969 138.671875 C 265.671875 138.550781 265.621094 138.40625 265.628906 138.234375 C 265.640625 138.066406 265.710938 137.929688 265.84375 137.824219 C 265.976562 137.71875 266.128906 137.679688 266.296875 137.707031 C 266.460938 137.734375 266.59375 137.820312 266.683594 137.964844 C 267.179688 138.464844 267.769531 138.78125 268.460938 138.917969 L 268.847656 139.042969 C 268.976562 139.089844 269.074219 139.171875 269.140625 139.289062 C 269.210938 139.40625 269.234375 139.527344 269.214844 139.664062 C 269.195312 139.796875 269.136719 139.90625 269.035156 140 C 268.9375 140.089844 268.820312 140.140625 268.6875 140.152344 Z M 268.679688 140.113281 " fill-opacity="1" fill-rule="nonzero"/></g></g></g></g><g clip-path="url(#93038d5a4d)"><g clip-path="url(#5088174e3b)"><g clip-path="url(#2a4f631e4a)"><g clip-path="url(#10838ecdbf)"><path fill="#6ad7e5" d="M 190.496094 33.363281 C 213.441406 32.664062 235.050781 35.292969 246.933594 56.996094 C 257.75 81.394531 254.984375 108.152344 257.3125 134.214844 C 259.316406 156.597656 263.023438 182.410156 253.257812 203.511719 C 242.980469 225.699219 215.804688 232.035156 193.25 231.914062 C 175.535156 231.824219 153.988281 226.699219 143.507812 210.835938 C 131.214844 192.226562 135.90625 163.851562 136.109375 142.722656 C 136.355469 117.699219 127.816406 92.851562 135.289062 68.144531 C 143.039062 42.519531 165.835938 36.074219 190.503906 33.363281 " fill-opacity="1" fill-rule="evenodd"/></g></g></g></g><g clip-path="url(#2eed6b2403)"><g clip-path="url(#fdce2b6834)"><g clip-path="url(#8dff81692b)"><g clip-path="url(#15083cbd57)"><path fill="#000000" d="M 197.191406 232.425781 C 195.742188 232.46875 194.4375 232.511719 193.253906 232.472656 C 182.371094 232.414062 155.640625 230.21875 143.039062 211.140625 C 133.101562 196.09375 134.144531 174.84375 135.058594 156.09375 C 135.292969 151.378906 135.503906 146.921875 135.550781 142.710938 C 135.449219 133.828125 134.800781 124.984375 133.605469 116.179688 C 132.128906 108.191406 131.484375 100.136719 131.679688 92.015625 C 131.871094 83.894531 132.894531 75.882812 134.746094 67.972656 C 135.53125 65.148438 136.59375 62.4375 137.941406 59.839844 C 139.289062 57.238281 140.890625 54.804688 142.742188 52.539062 C 144.597656 50.273438 146.664062 48.222656 148.949219 46.386719 C 151.230469 44.550781 153.675781 42.972656 156.289062 41.644531 C 161.648438 39.105469 167.199219 37.089844 172.941406 35.601562 C 178.683594 34.113281 184.515625 33.175781 190.4375 32.792969 L 190.480469 32.792969 C 212.878906 32.109375 235.289062 34.539062 247.433594 56.722656 L 247.433594 56.765625 C 250.765625 65.714844 253.210938 74.90625 254.769531 84.328125 C 256.332031 93.75 256.976562 103.238281 256.710938 112.785156 C 256.960938 119.804688 257.226562 127.074219 257.855469 134.164062 C 258.046875 136.332031 258.257812 138.503906 258.46875 140.671875 C 260.429688 161.21875 262.648438 184.515625 253.75 203.726562 C 242.664062 227.71875 212.96875 231.945312 197.191406 232.425781 Z M 190.535156 33.929688 C 166.722656 36.546875 143.648438 42.523438 135.824219 68.300781 C 133.996094 76.136719 132.988281 84.074219 132.804688 92.121094 C 132.617188 100.164062 133.253906 108.140625 134.71875 116.050781 C 135.914062 124.902344 136.554688 133.796875 136.648438 142.730469 C 136.601562 146.964844 136.390625 151.441406 136.15625 156.164062 C 135.273438 174.738281 134.214844 195.789062 143.949219 210.523438 C 156.253906 229.148438 182.503906 231.292969 193.21875 231.34375 C 207.164062 231.417969 240.863281 228.824219 252.699219 203.265625 C 261.464844 184.335938 259.261719 161.207031 257.324219 140.800781 C 257.113281 138.632812 256.910156 136.417969 256.714844 134.292969 C 256.078125 127.171875 255.820312 119.890625 255.566406 112.855469 C 255.832031 103.386719 255.195312 93.976562 253.652344 84.628906 C 252.109375 75.28125 249.691406 66.164062 246.398438 57.28125 C 234.574219 35.628906 212.558594 33.265625 190.535156 33.929688 Z M 190.535156 33.929688 " fill-opacity="1" fill-rule="nonzero"/></g></g></g></g><g clip-path="url(#00931de4dd)"><g clip-path="url(#2958766da0)"><g clip-path="url(#1a530d4bd4)"><g clip-path="url(#b2115ae355)"><path fill="#ffffff" d="M 195.488281 64.039062 C 200.332031 87.832031 239.289062 80.339844 232.929688 56.371094 C 227.195312 34.871094 193.441406 41.898438 195.488281 64.039062 " fill-opacity="1" fill-rule="evenodd"/></g></g></g></g><g clip-path="url(#f17cf5948c)"><g clip-path="url(#68281036ba)"><g clip-path="url(#68a3d6a24a)"><g clip-path="url(#e3a1e330e4)"><path fill="#000000" d="M 214.558594 79.097656 C 212.105469 79.183594 209.707031 78.863281 207.363281 78.144531 C 205.777344 77.671875 204.289062 76.992188 202.894531 76.105469 C 201.5 75.214844 200.253906 74.152344 199.15625 72.917969 C 198.058594 71.679688 197.152344 70.316406 196.4375 68.824219 C 195.722656 67.335938 195.222656 65.773438 194.945312 64.144531 L 194.945312 64.085938 C 194.890625 63.46875 194.863281 62.851562 194.871094 62.230469 C 194.875 61.609375 194.910156 60.992188 194.972656 60.378906 C 195.035156 59.761719 195.128906 59.148438 195.253906 58.542969 C 195.375 57.933594 195.527344 57.335938 195.707031 56.742188 C 195.886719 56.148438 196.097656 55.566406 196.332031 54.992188 C 196.570312 54.421875 196.832031 53.859375 197.125 53.3125 C 197.414062 52.765625 197.730469 52.234375 198.070312 51.714844 C 198.410156 51.199219 198.777344 50.699219 199.164062 50.214844 C 199.554688 49.734375 199.964844 49.269531 200.398438 48.828125 C 200.832031 48.386719 201.285156 47.964844 201.761719 47.566406 C 202.234375 47.167969 202.726562 46.789062 203.238281 46.4375 C 203.746094 46.085938 204.273438 45.761719 204.8125 45.457031 C 205.355469 45.15625 205.910156 44.882812 206.476562 44.632812 C 207.042969 44.386719 207.621094 44.164062 208.210938 43.972656 C 208.800781 43.777344 209.398438 43.613281 210.003906 43.480469 C 210.605469 43.34375 211.214844 43.238281 211.832031 43.160156 C 212.398438 43.023438 212.972656 42.914062 213.550781 42.835938 C 214.128906 42.753906 214.710938 42.703125 215.292969 42.679688 C 215.878906 42.65625 216.460938 42.660156 217.042969 42.695312 C 217.625 42.726562 218.207031 42.789062 218.785156 42.878906 C 219.359375 42.96875 219.933594 43.085938 220.496094 43.230469 C 221.0625 43.375 221.621094 43.546875 222.167969 43.746094 C 222.71875 43.945312 223.253906 44.171875 223.78125 44.425781 C 224.308594 44.675781 224.824219 44.953125 225.324219 45.253906 C 225.824219 45.558594 226.308594 45.882812 226.773438 46.230469 C 227.242188 46.582031 227.695312 46.949219 228.125 47.34375 C 228.558594 47.738281 228.96875 48.148438 229.363281 48.582031 C 229.753906 49.015625 230.125 49.464844 230.472656 49.933594 C 230.820312 50.402344 231.144531 50.886719 231.445312 51.390625 C 231.746094 51.890625 232.023438 52.402344 232.273438 52.929688 C 232.523438 53.457031 232.75 53.996094 232.945312 54.546875 C 233.144531 55.09375 233.316406 55.652344 233.460938 56.21875 C 233.929688 57.707031 234.1875 59.230469 234.234375 60.792969 C 234.277344 62.351562 234.105469 63.890625 233.722656 65.402344 C 233.335938 66.917969 232.75 68.347656 231.964844 69.699219 C 231.179688 71.046875 230.226562 72.261719 229.101562 73.347656 C 227.105469 75.152344 224.855469 76.550781 222.351562 77.539062 C 219.847656 78.53125 217.25 79.050781 214.558594 79.097656 Z M 196.035156 63.957031 C 196.300781 65.488281 196.769531 66.949219 197.441406 68.347656 C 198.113281 69.746094 198.964844 71.027344 199.996094 72.1875 C 201.023438 73.347656 202.191406 74.34375 203.5 75.179688 C 204.808594 76.011719 206.207031 76.652344 207.691406 77.09375 C 209.464844 77.628906 211.273438 77.933594 213.125 78.003906 C 214.972656 78.074219 216.800781 77.910156 218.605469 77.511719 C 220.414062 77.113281 222.140625 76.496094 223.789062 75.65625 C 225.4375 74.8125 226.953125 73.777344 228.335938 72.550781 C 229.390625 71.53125 230.285156 70.390625 231.023438 69.121094 C 231.757812 67.855469 232.304688 66.511719 232.664062 65.089844 C 233.023438 63.667969 233.179688 62.222656 233.132812 60.757812 C 233.085938 59.292969 232.839844 57.863281 232.394531 56.46875 C 232.257812 55.9375 232.09375 55.410156 231.90625 54.894531 C 231.71875 54.378906 231.503906 53.871094 231.265625 53.375 C 231.027344 52.878906 230.765625 52.398438 230.484375 51.925781 C 230.199219 51.457031 229.890625 51 229.5625 50.5625 C 229.230469 50.121094 228.882812 49.699219 228.511719 49.292969 C 228.140625 48.886719 227.753906 48.496094 227.34375 48.128906 C 226.9375 47.761719 226.511719 47.414062 226.070312 47.085938 C 225.625 46.757812 225.167969 46.453125 224.699219 46.171875 C 224.226562 45.890625 223.742188 45.628906 223.246094 45.394531 C 222.75 45.160156 222.242188 44.949219 221.722656 44.765625 C 221.207031 44.578125 220.679688 44.417969 220.148438 44.285156 C 219.613281 44.148438 219.074219 44.039062 218.53125 43.957031 C 217.988281 43.875 217.441406 43.820312 216.894531 43.792969 C 216.34375 43.761719 215.796875 43.761719 215.246094 43.785156 C 214.695312 43.808594 214.148438 43.859375 213.605469 43.9375 C 213.0625 44.015625 212.523438 44.121094 211.988281 44.25 C 211.410156 44.324219 210.832031 44.421875 210.265625 44.550781 C 209.695312 44.679688 209.132812 44.835938 208.578125 45.015625 C 208.023438 45.199219 207.476562 45.40625 206.941406 45.640625 C 206.40625 45.871094 205.882812 46.132812 205.375 46.414062 C 204.863281 46.699219 204.367188 47.007812 203.886719 47.339844 C 203.40625 47.671875 202.941406 48.023438 202.496094 48.398438 C 202.046875 48.773438 201.617188 49.171875 201.210938 49.589844 C 200.800781 50.003906 200.414062 50.441406 200.046875 50.894531 C 199.679688 51.347656 199.332031 51.820312 199.011719 52.304688 C 198.6875 52.792969 198.390625 53.292969 198.117188 53.808594 C 197.839844 54.324219 197.589844 54.851562 197.367188 55.390625 C 197.144531 55.929688 196.945312 56.480469 196.773438 57.039062 C 196.601562 57.597656 196.460938 58.160156 196.34375 58.734375 C 196.226562 59.304688 196.136719 59.882812 196.074219 60.460938 C 196.011719 61.042969 195.976562 61.625 195.96875 62.210938 C 195.964844 62.792969 195.984375 63.375 196.035156 63.957031 Z M 196.035156 63.957031 " fill-opacity="1" fill-rule="nonzero"/></g></g></g></g><g clip-path="url(#8c87433ec4)"><g clip-path="url(#d358a1b976)"><g clip-path="url(#4aa0c5e36c)"><g clip-path="url(#d261a38736)"><path fill="#ffffff" d="M 148.832031 69.335938 C 154.800781 90.023438 188.015625 83.644531 186.121094 62.796875 C 183.851562 37.796875 142.941406 43.878906 148.824219 69.335938 " fill-opacity="1" fill-rule="evenodd"/></g></g></g></g><g clip-path="url(#9060692a1a)"><g clip-path="url(#69cb89ef09)"><g clip-path="url(#d2c873d99d)"><g clip-path="url(#08484fc3df)"><path fill="#000000" d="M 167.058594 82.546875 C 163.609375 82.683594 160.335938 81.996094 157.238281 80.480469 C 156.148438 79.933594 155.128906 79.273438 154.179688 78.511719 C 153.226562 77.746094 152.367188 76.886719 151.597656 75.941406 C 150.832031 74.992188 150.167969 73.976562 149.617188 72.886719 C 149.0625 71.800781 148.628906 70.667969 148.316406 69.488281 C 148.085938 68.6875 147.914062 67.875 147.800781 67.046875 C 147.6875 66.222656 147.632812 65.394531 147.640625 64.5625 C 147.644531 63.726562 147.710938 62.898438 147.832031 62.074219 C 147.957031 61.25 148.140625 60.441406 148.378906 59.640625 C 148.617188 58.84375 148.914062 58.066406 149.265625 57.3125 C 149.617188 56.554688 150.019531 55.828125 150.472656 55.128906 C 150.929688 54.433594 151.429688 53.769531 151.980469 53.144531 C 152.53125 52.515625 153.121094 51.933594 153.753906 51.390625 C 155.292969 50.144531 156.964844 49.117188 158.773438 48.308594 C 160.582031 47.5 162.464844 46.941406 164.421875 46.632812 C 166.378906 46.320312 168.34375 46.269531 170.3125 46.476562 C 172.28125 46.683594 174.191406 47.144531 176.039062 47.855469 C 176.789062 48.15625 177.511719 48.507812 178.210938 48.910156 C 178.910156 49.316406 179.574219 49.765625 180.210938 50.265625 C 180.84375 50.765625 181.4375 51.304688 181.996094 51.890625 C 182.550781 52.476562 183.0625 53.09375 183.53125 53.753906 C 184 54.410156 184.417969 55.097656 184.789062 55.816406 C 185.15625 56.53125 185.472656 57.273438 185.738281 58.035156 C 186 58.796875 186.210938 59.574219 186.363281 60.367188 C 186.515625 61.160156 186.609375 61.957031 186.648438 62.765625 C 186.726562 63.921875 186.695312 65.074219 186.550781 66.226562 C 186.410156 67.375 186.160156 68.503906 185.804688 69.605469 C 185.449219 70.710938 184.992188 71.769531 184.4375 72.789062 C 183.882812 73.804688 183.234375 74.757812 182.496094 75.652344 C 181.757812 76.546875 180.941406 77.363281 180.050781 78.105469 C 179.15625 78.84375 178.203125 79.492188 177.1875 80.050781 C 176.171875 80.609375 175.113281 81.066406 174.007812 81.425781 C 172.90625 81.78125 171.78125 82.035156 170.628906 82.175781 C 169.449219 82.394531 168.257812 82.515625 167.058594 82.546875 Z M 149.351562 69.203125 C 149.507812 69.738281 149.691406 70.265625 149.902344 70.785156 C 150.109375 71.300781 150.34375 71.808594 150.601562 72.304688 C 150.859375 72.796875 151.140625 73.28125 151.445312 73.75 C 151.75 74.21875 152.074219 74.667969 152.421875 75.105469 C 152.769531 75.542969 153.140625 75.960938 153.527344 76.363281 C 153.914062 76.765625 154.320312 77.148438 154.746094 77.511719 C 155.171875 77.871094 155.613281 78.214844 156.070312 78.53125 C 156.527344 78.851562 157 79.148438 157.488281 79.425781 C 157.972656 79.699219 158.472656 79.949219 158.984375 80.175781 C 159.492188 80.402344 160.015625 80.601562 160.542969 80.78125 C 161.074219 80.957031 161.609375 81.105469 162.15625 81.230469 C 162.699219 81.355469 163.25 81.453125 163.800781 81.527344 C 164.355469 81.597656 164.914062 81.640625 165.46875 81.660156 C 166.027344 81.679688 166.585938 81.671875 167.144531 81.632812 C 167.699219 81.597656 168.253906 81.535156 168.808594 81.449219 C 169.359375 81.359375 169.902344 81.242188 170.445312 81.101562 C 171.527344 80.96875 172.589844 80.734375 173.632812 80.402344 C 174.671875 80.066406 175.671875 79.636719 176.628906 79.113281 C 177.589844 78.589844 178.488281 77.976562 179.332031 77.285156 C 180.175781 76.589844 180.945312 75.820312 181.644531 74.980469 C 182.34375 74.136719 182.953125 73.238281 183.480469 72.28125 C 184.007812 71.324219 184.441406 70.328125 184.777344 69.289062 C 185.117188 68.25 185.355469 67.1875 185.492188 66.101562 C 185.628906 65.019531 185.660156 63.929688 185.59375 62.839844 C 185.523438 61.316406 185.238281 59.832031 184.742188 58.390625 C 184.246094 56.949219 183.558594 55.605469 182.675781 54.363281 C 181.792969 53.117188 180.75 52.023438 179.554688 51.078125 C 178.355469 50.136719 177.050781 49.378906 175.632812 48.8125 C 173.875 48.132812 172.0625 47.695312 170.1875 47.5 C 168.316406 47.300781 166.449219 47.351562 164.589844 47.644531 C 162.730469 47.941406 160.9375 48.46875 159.21875 49.238281 C 157.5 50.003906 155.910156 50.980469 154.445312 52.167969 C 153.851562 52.679688 153.296875 53.230469 152.78125 53.820312 C 152.261719 54.410156 151.792969 55.035156 151.363281 55.691406 C 150.9375 56.347656 150.558594 57.03125 150.230469 57.746094 C 149.902344 58.457031 149.625 59.1875 149.398438 59.9375 C 149.175781 60.6875 149.003906 61.453125 148.886719 62.226562 C 148.773438 63.003906 148.714844 63.785156 148.710938 64.566406 C 148.703125 65.351562 148.757812 66.132812 148.863281 66.90625 C 148.972656 67.683594 149.132812 68.449219 149.351562 69.203125 Z M 149.351562 69.203125 " fill-opacity="1" fill-rule="nonzero"/></g></g></g></g><g clip-path="url(#ef754ce771)"><g clip-path="url(#61ff6f4922)"><g clip-path="url(#2128b3a408)"><g clip-path="url(#69602f8553)"><path fill="#ffffff" d="M 201.085938 92.632812 C 201.53125 95.925781 201.671875 99.230469 201.503906 102.546875 C 200.753906 104.074219 199.199219 104.28125 197.878906 104.929688 C 196.945312 104.8125 196.097656 104.476562 195.339844 103.917969 C 194.582031 103.363281 194.003906 102.65625 193.613281 101.800781 C 193.296875 98.058594 193.28125 94.3125 193.566406 90.566406 Z M 201.085938 92.632812 " fill-opacity="1" fill-rule="evenodd"/></g></g></g></g><g clip-path="url(#4ae75979dc)"><g clip-path="url(#cc5fa8b4d6)"><g clip-path="url(#a686526854)"><g clip-path="url(#36535e6772)"><path fill="#000000" d="M 197.976562 105.515625 L 197.808594 105.519531 C 196.773438 105.386719 195.835938 105.011719 195 104.390625 C 194.160156 103.769531 193.527344 102.984375 193.097656 102.035156 L 193.09375 101.964844 L 193.09375 101.882812 C 192.773438 99.320312 192.714844 96.753906 192.921875 94.179688 C 192.980469 92.992188 193.039062 91.773438 193.035156 90.546875 L 193.015625 89.824219 L 201.652344 92.1875 L 201.667969 92.605469 C 201.699219 93.636719 201.816406 94.699219 201.9375 95.820312 C 202.273438 98.082031 202.324219 100.351562 202.085938 102.625 L 202.089844 102.710938 L 202.050781 102.792969 C 201.734375 103.351562 201.320312 103.828125 200.8125 104.222656 C 200.300781 104.617188 199.738281 104.894531 199.113281 105.058594 C 198.777344 105.191406 198.460938 105.308594 198.15625 105.464844 Z M 194.164062 101.632812 C 194.511719 102.355469 195.003906 102.953125 195.644531 103.429688 C 196.285156 103.910156 197 104.210938 197.789062 104.335938 C 198.082031 104.203125 198.382812 104.085938 198.667969 103.96875 C 199.640625 103.738281 200.402344 103.203125 200.957031 102.371094 C 201.148438 100.21875 201.085938 98.074219 200.757812 95.941406 C 200.65625 94.949219 200.554688 94.003906 200.503906 93.046875 L 194.105469 91.296875 C 194.082031 92.285156 194.039062 93.265625 193.996094 94.203125 C 193.796875 96.683594 193.847656 99.160156 194.152344 101.632812 Z M 194.164062 101.632812 " fill-opacity="1" fill-rule="nonzero"/></g></g></g></g><g clip-path="url(#019378e68d)"><g clip-path="url(#089da867cf)"><g clip-path="url(#9d735c8554)"><g clip-path="url(#758aa65830)"><path fill="#000000" d="M 163.570312 65.484375 C 163.582031 65.886719 163.558594 66.28125 163.5 66.679688 C 163.4375 67.074219 163.34375 67.457031 163.210938 67.832031 C 163.082031 68.207031 162.917969 68.5625 162.722656 68.902344 C 162.527344 69.242188 162.304688 69.558594 162.050781 69.847656 C 161.796875 70.140625 161.519531 70.402344 161.21875 70.632812 C 160.917969 70.867188 160.597656 71.0625 160.261719 71.226562 C 159.925781 71.390625 159.574219 71.519531 159.214844 71.605469 C 158.855469 71.695312 158.488281 71.746094 158.117188 71.757812 C 157.75 71.769531 157.378906 71.742188 157.015625 71.675781 C 156.648438 71.605469 156.292969 71.503906 155.945312 71.359375 C 155.601562 71.214844 155.269531 71.039062 154.953125 70.824219 C 154.640625 70.613281 154.347656 70.367188 154.078125 70.09375 C 153.808594 69.816406 153.5625 69.515625 153.347656 69.1875 C 153.132812 68.863281 152.949219 68.515625 152.792969 68.148438 C 152.640625 67.785156 152.523438 67.40625 152.4375 67.015625 C 152.355469 66.625 152.304688 66.226562 152.292969 65.828125 C 152.28125 65.425781 152.304688 65.027344 152.367188 64.632812 C 152.425781 64.238281 152.523438 63.855469 152.652344 63.480469 C 152.78125 63.105469 152.945312 62.746094 153.140625 62.410156 C 153.335938 62.070312 153.5625 61.753906 153.8125 61.460938 C 154.066406 61.171875 154.34375 60.910156 154.644531 60.679688 C 154.945312 60.445312 155.265625 60.246094 155.601562 60.085938 C 155.941406 59.921875 156.289062 59.792969 156.648438 59.703125 C 157.011719 59.617188 157.375 59.566406 157.746094 59.554688 C 158.117188 59.542969 158.484375 59.570312 158.851562 59.636719 C 159.214844 59.703125 159.570312 59.808594 159.917969 59.953125 C 160.265625 60.09375 160.597656 60.273438 160.910156 60.488281 C 161.226562 60.699219 161.515625 60.945312 161.789062 61.21875 C 162.058594 61.496094 162.300781 61.796875 162.515625 62.125 C 162.734375 62.449219 162.917969 62.796875 163.070312 63.164062 C 163.222656 63.527344 163.34375 63.90625 163.425781 64.296875 C 163.511719 64.6875 163.558594 65.082031 163.570312 65.484375 Z M 163.570312 65.484375 " fill-opacity="1" fill-rule="nonzero"/></g></g></g></g><g clip-path="url(#9cb8c38bf2)"><g clip-path="url(#bf42edd6a8)"><g clip-path="url(#6bcb44fac4)"><g clip-path="url(#040048a6e0)"><path fill="#ffffff" d="M 161.867188 66.914062 C 161.871094 67.121094 161.84375 67.320312 161.785156 67.511719 C 161.722656 67.703125 161.632812 67.875 161.511719 68.023438 C 161.390625 68.171875 161.25 68.289062 161.089844 68.371094 C 160.929688 68.457031 160.761719 68.5 160.585938 68.503906 C 160.410156 68.511719 160.242188 68.476562 160.074219 68.402344 C 159.910156 68.328125 159.765625 68.222656 159.636719 68.078125 C 159.507812 67.9375 159.40625 67.773438 159.332031 67.585938 C 159.257812 67.398438 159.21875 67.199219 159.214844 66.996094 C 159.207031 66.789062 159.234375 66.589844 159.296875 66.398438 C 159.359375 66.207031 159.449219 66.035156 159.570312 65.886719 C 159.6875 65.738281 159.828125 65.621094 159.988281 65.539062 C 160.148438 65.453125 160.316406 65.410156 160.492188 65.402344 C 160.667969 65.398438 160.839844 65.433594 161.003906 65.507812 C 161.167969 65.582031 161.316406 65.6875 161.445312 65.828125 C 161.574219 65.972656 161.675781 66.136719 161.746094 66.324219 C 161.820312 66.511719 161.859375 66.707031 161.867188 66.914062 Z M 161.867188 66.914062 " fill-opacity="1" fill-rule="nonzero"/></g></g></g></g><g clip-path="url(#2fa739fcbe)"><g clip-path="url(#542f956724)"><g clip-path="url(#21ce409db6)"><g clip-path="url(#94ca497f37)"><path fill="#000000" d="M 210.652344 62.527344 C 210.664062 62.925781 210.640625 63.324219 210.582031 63.722656 C 210.523438 64.117188 210.429688 64.5 210.300781 64.875 C 210.171875 65.25 210.011719 65.605469 209.820312 65.945312 C 209.628906 66.285156 209.40625 66.601562 209.160156 66.890625 C 208.910156 67.183594 208.636719 67.445312 208.34375 67.675781 C 208.046875 67.90625 207.730469 68.105469 207.402344 68.269531 C 207.070312 68.433594 206.726562 68.558594 206.371094 68.648438 C 206.015625 68.738281 205.65625 68.785156 205.292969 68.796875 C 204.929688 68.808594 204.566406 68.78125 204.207031 68.714844 C 203.847656 68.644531 203.5 68.542969 203.15625 68.398438 C 202.816406 68.253906 202.492188 68.078125 202.183594 67.863281 C 201.871094 67.648438 201.585938 67.40625 201.320312 67.128906 C 201.050781 66.855469 200.8125 66.554688 200.601562 66.226562 C 200.386719 65.898438 200.207031 65.554688 200.054688 65.1875 C 199.90625 64.820312 199.789062 64.441406 199.707031 64.050781 C 199.625 63.660156 199.574219 63.265625 199.5625 62.863281 C 199.550781 62.464844 199.574219 62.066406 199.632812 61.671875 C 199.691406 61.277344 199.785156 60.890625 199.914062 60.515625 C 200.042969 60.140625 200.203125 59.785156 200.394531 59.445312 C 200.585938 59.105469 200.808594 58.792969 201.054688 58.5 C 201.304688 58.210938 201.578125 57.949219 201.871094 57.714844 C 202.167969 57.484375 202.480469 57.285156 202.8125 57.125 C 203.144531 56.960938 203.488281 56.832031 203.84375 56.746094 C 204.199219 56.65625 204.558594 56.605469 204.921875 56.59375 C 205.285156 56.582031 205.648438 56.609375 206.007812 56.679688 C 206.367188 56.746094 206.714844 56.851562 207.058594 56.992188 C 207.398438 57.136719 207.722656 57.316406 208.03125 57.527344 C 208.34375 57.742188 208.628906 57.984375 208.894531 58.261719 C 209.160156 58.539062 209.402344 58.839844 209.613281 59.164062 C 209.824219 59.492188 210.007812 59.839844 210.15625 60.203125 C 210.308594 60.570312 210.425781 60.949219 210.507812 61.339844 C 210.589844 61.730469 210.640625 62.125 210.652344 62.527344 Z M 210.652344 62.527344 " fill-opacity="1" fill-rule="nonzero"/></g></g></g></g><g clip-path="url(#7827498f95)"><g clip-path="url(#e00d92f58c)"><g clip-path="url(#2fcb2a989d)"><g clip-path="url(#b566c23010)"><path fill="#ffffff" d="M 208.976562 63.957031 C 208.980469 64.160156 208.953125 64.359375 208.894531 64.554688 C 208.835938 64.746094 208.746094 64.914062 208.628906 65.066406 C 208.507812 65.214844 208.371094 65.328125 208.214844 65.414062 C 208.054688 65.496094 207.890625 65.542969 207.71875 65.546875 C 207.546875 65.550781 207.378906 65.519531 207.214844 65.445312 C 207.054688 65.371094 206.910156 65.261719 206.78125 65.121094 C 206.65625 64.980469 206.554688 64.8125 206.484375 64.625 C 206.414062 64.4375 206.371094 64.242188 206.367188 64.035156 C 206.359375 63.832031 206.386719 63.632812 206.449219 63.4375 C 206.507812 63.246094 206.597656 63.078125 206.714844 62.925781 C 206.832031 62.777344 206.972656 62.660156 207.128906 62.578125 C 207.285156 62.496094 207.449219 62.449219 207.625 62.445312 C 207.796875 62.441406 207.964844 62.472656 208.125 62.546875 C 208.289062 62.621094 208.433594 62.730469 208.558594 62.871094 C 208.6875 63.011719 208.785156 63.179688 208.859375 63.367188 C 208.929688 63.554688 208.96875 63.75 208.976562 63.957031 Z M 208.976562 63.957031 " fill-opacity="1" fill-rule="nonzero"/></g></g></g></g><g clip-path="url(#b1c840f9d4)"><g clip-path="url(#f09a97626c)"><g clip-path="url(#8909926c6c)"><g clip-path="url(#e1a585f365)"><path fill="#ffffff" d="M 184.964844 92.78125 C 182.691406 98.8125 186.878906 110.617188 193.285156 101.625 C 192.972656 97.878906 192.957031 94.136719 193.242188 90.390625 Z M 184.964844 92.78125 " fill-opacity="1" fill-rule="evenodd"/></g></g></g></g><g clip-path="url(#7ca958e7e4)"><g clip-path="url(#00bd9d4c3d)"><g clip-path="url(#2f78df0b99)"><g clip-path="url(#f7b2a25f65)"><path fill="#000000" d="M 188.941406 105.46875 C 188.355469 105.484375 187.804688 105.351562 187.292969 105.070312 C 186.46875 104.285156 185.773438 103.398438 185.210938 102.40625 C 184.648438 101.417969 184.238281 100.367188 183.984375 99.257812 C 183.734375 98.148438 183.644531 97.023438 183.722656 95.890625 C 183.796875 94.753906 184.035156 93.652344 184.4375 92.585938 L 184.539062 92.324219 L 193.785156 89.632812 L 193.808594 90.355469 C 193.808594 91.589844 193.746094 92.824219 193.6875 93.988281 C 193.480469 96.484375 193.53125 98.976562 193.839844 101.460938 L 193.847656 101.695312 L 193.714844 101.886719 C 191.875 104.5625 190.242188 105.429688 188.941406 105.46875 Z M 185.410156 93.246094 C 185.089844 94.171875 184.90625 95.121094 184.851562 96.097656 C 184.796875 97.074219 184.875 98.039062 185.089844 98.992188 C 185.300781 99.945312 185.640625 100.851562 186.105469 101.710938 C 186.570312 102.570312 187.144531 103.351562 187.828125 104.054688 C 189.582031 104.984375 191.429688 103.21875 192.6875 101.476562 C 192.402344 98.988281 192.359375 96.496094 192.554688 94 C 192.597656 93.0625 192.640625 92.105469 192.664062 91.152344 Z M 185.410156 93.246094 " fill-opacity="1" fill-rule="nonzero"/></g></g></g></g><g clip-path="url(#b3620b17d8)"><g clip-path="url(#eabd8090e1)"><g clip-path="url(#31c51a7784)"><g clip-path="url(#e2ac0d52cf)"><path fill="#f6d2a2" d="M 185.457031 81.277344 C 185.171875 81.3125 184.890625 81.363281 184.613281 81.433594 C 184.335938 81.5 184.0625 81.585938 183.796875 81.6875 C 183.527344 81.789062 183.265625 81.90625 183.011719 82.035156 C 182.757812 82.167969 182.511719 82.316406 182.277344 82.476562 C 182.039062 82.636719 181.8125 82.8125 181.597656 83 C 181.382812 83.1875 181.175781 83.386719 180.984375 83.601562 C 180.792969 83.8125 180.613281 84.035156 180.445312 84.269531 C 180.28125 84.5 180.128906 84.742188 179.992188 84.996094 C 179.855469 85.246094 179.734375 85.503906 179.625 85.769531 C 179.519531 86.035156 179.429688 86.308594 179.355469 86.582031 C 179.28125 86.859375 179.222656 87.140625 179.179688 87.421875 C 179.140625 87.707031 179.113281 87.992188 179.109375 88.277344 C 179.101562 88.5625 179.109375 88.851562 179.136719 89.136719 C 179.160156 89.421875 179.203125 89.703125 179.265625 89.984375 C 179.324219 90.261719 179.398438 90.539062 179.492188 90.808594 C 179.585938 91.082031 179.691406 91.34375 179.816406 91.601562 C 183.144531 97.21875 189.996094 90.785156 194.40625 91.238281 C 199.484375 91.183594 203.757812 96.300781 207.675781 91.785156 C 212.035156 86.761719 205.441406 82.199219 200.332031 80.226562 Z M 185.457031 81.277344 " fill-opacity="1" fill-rule="evenodd"/></g></g></g></g><g clip-path="url(#34e1994db6)"><g clip-path="url(#eca0b6a92c)"><g clip-path="url(#4f33a87ff1)"><g clip-path="url(#ada71afb78)"><path fill="#231f20" d="M 204.136719 94.222656 C 202.5 94.140625 200.9375 93.757812 199.453125 93.066406 C 197.851562 92.328125 196.175781 91.914062 194.417969 91.8125 L 194.351562 91.8125 C 192.554688 91.871094 190.84375 92.289062 189.226562 93.070312 C 185.703125 94.414062 181.710938 95.925781 179.324219 91.921875 C 179.035156 91.417969 178.8125 90.886719 178.660156 90.324219 C 178.507812 89.765625 178.425781 89.191406 178.414062 88.613281 C 178.40625 88.03125 178.472656 87.457031 178.609375 86.890625 C 178.746094 86.328125 178.949219 85.789062 179.226562 85.273438 C 179.511719 84.671875 179.867188 84.113281 180.292969 83.597656 C 180.71875 83.082031 181.199219 82.625 181.738281 82.230469 C 182.273438 81.835938 182.851562 81.511719 183.472656 81.257812 C 184.089844 81.003906 184.730469 80.828125 185.390625 80.734375 L 200.421875 79.636719 L 200.539062 79.683594 C 204.335938 81.152344 208.691406 83.914062 209.527344 87.265625 C 209.585938 87.671875 209.609375 88.082031 209.585938 88.492188 C 209.566406 88.902344 209.503906 89.304688 209.398438 89.703125 C 209.292969 90.101562 209.152344 90.484375 208.972656 90.851562 C 208.789062 91.222656 208.574219 91.570312 208.320312 91.894531 C 208.070312 92.21875 207.785156 92.511719 207.472656 92.78125 C 207.160156 93.046875 206.828125 93.28125 206.464844 93.480469 C 206.105469 93.679688 205.730469 93.839844 205.339844 93.960938 C 204.945312 94.082031 204.546875 94.164062 204.136719 94.207031 Z M 194.433594 90.699219 C 196.328125 90.796875 198.140625 91.242188 199.863281 92.03125 C 202.75 93.140625 205.003906 94.011719 207.253906 91.441406 C 207.765625 90.941406 208.125 90.347656 208.332031 89.660156 C 208.542969 88.972656 208.574219 88.277344 208.425781 87.578125 C 207.707031 84.695312 203.601562 82.144531 200.242188 80.832031 L 185.503906 81.871094 C 184.359375 82.050781 183.320312 82.484375 182.390625 83.175781 C 181.460938 83.867188 180.742188 84.734375 180.242188 85.78125 C 179.773438 86.648438 179.542969 87.578125 179.554688 88.570312 C 179.5625 89.558594 179.8125 90.480469 180.300781 91.339844 C 182.199219 94.539062 185.441406 93.316406 188.808594 92.027344 C 190.585938 91.171875 192.460938 90.730469 194.433594 90.699219 Z M 194.433594 90.699219 " fill-opacity="1" fill-rule="nonzero"/></g></g></g></g><g clip-path="url(#289bd71459)"><g clip-path="url(#cb2aec953e)"><g clip-path="url(#8cce254ec8)"><g clip-path="url(#31450688c2)"><path fill="#000000" d="M 184.878906 81.054688 C 184.296875 73.128906 199.402344 71.691406 201.417969 78.265625 C 203.429688 84.839844 185.824219 86.921875 184.898438 81.0625 Z M 184.878906 81.054688 " fill-opacity="1" fill-rule="evenodd"/></g></g></g></g></svg>